# xmcd CD database file
#
# Track frame offsets:
#	150
#	17972
#	36474
#
# Disc length: 655 seconds
#
# Revision: 1
# Processed by: cddbd v1.5.1PL2 Copyright (c) Steve Scherf et al.
# Submitted via: CDex 1.51
#
DISCID=22028d03
DTITLE=Royko Passage - DEMO
DYEAR=2005
DGENRE=Pop
TTITLE0=Judith
TTITLE1=Ariel
TTITLE2=Falling Down
EXTD=YEAR: 2005
EXTT0=
EXTT1=
EXTT2=
PLAYORDER=
